<svg xmlns="http://www.w3.org/2000/svg" xmlns:xlink="http://www.w3.org/1999/xlink" width="1635" zoomAndPan="magnify" viewBox="0 0 1226.25 203.249992" height="271" preserveAspectRatio="xMidYMid meet" version="1.0"><defs><clipPath id="4f360e27b1"><path d="M 1181.277344 28.117188 L 1223.621094 28.117188 L 1223.621094 70.859375 L 1181.277344 70.859375 Z M 1181.277344 28.117188 " clip-rule="nonzero"/></clipPath></defs><path fill="#000000" d="M 130.105469 14.628906 L 130.105469 67.703125 L 104.136719 67.703125 C 92.914062 67.703125 84.128906 70.878906 77.78125 77.226562 C 71.441406 83.570312 68.273438 92.351562 68.273438 103.578125 C 68.273438 114.796875 71.441406 123.640625 77.78125 130.113281 C 84.128906 136.582031 92.914062 139.8125 104.136719 139.8125 L 130.105469 139.8125 L 130.105469 192.511719 L 93.882812 192.511719 C 82.910156 192.511719 72.296875 190.375 62.054688 186.101562 C 51.804688 181.832031 42.839844 175.792969 35.152344 167.984375 C 27.472656 160.183594 21.3125 150.789062 16.679688 139.8125 C 12.042969 128.828125 9.730469 116.75 9.730469 103.578125 C 9.730469 90.148438 12.105469 77.945312 16.867188 66.96875 C 21.625 55.992188 27.90625 46.664062 35.710938 38.980469 C 43.511719 31.292969 52.476562 25.308594 62.597656 21.035156 C 72.71875 16.765625 83.144531 14.628906 93.882812 14.628906 Z M 130.105469 14.628906 " fill-opacity="1" fill-rule="nonzero"/><path fill="#000000" d="M 208.769531 14.628906 L 208.769531 44.28125 L 209.5 44.28125 C 213.15625 33.546875 218.707031 25.925781 226.148438 21.410156 C 233.585938 16.890625 245.109375 14.628906 260.71875 14.628906 L 260.71875 68.058594 C 251.210938 68.800781 243.589844 69.71875 237.855469 70.820312 C 232.117188 71.910156 227.664062 73.804688 224.496094 76.496094 C 221.324219 79.175781 219.1875 82.960938 218.089844 87.84375 C 217 92.722656 216.453125 99.179688 216.453125 107.226562 L 216.453125 192.511719 L 157.910156 192.511719 L 157.910156 14.628906 Z M 208.769531 14.628906 " fill-opacity="1" fill-rule="nonzero"/><path fill="#000000" d="M 459.75 103.578125 C 459.75 116.019531 457.308594 127.851562 452.425781 139.078125 C 447.550781 150.296875 440.90625 160.238281 432.488281 168.90625 C 424.082031 177.566406 414.324219 184.398438 403.21875 189.410156 C 392.121094 194.40625 380.351562 196.90625 367.914062 196.90625 C 355.476562 196.90625 343.707031 194.40625 332.609375 189.410156 C 321.511719 184.398438 311.757812 177.566406 303.339844 168.90625 C 294.921875 160.238281 288.269531 150.296875 283.386719 139.078125 C 278.511719 127.851562 276.078125 116.019531 276.078125 103.578125 C 276.078125 91.128906 278.511719 79.292969 283.386719 68.074219 C 288.269531 56.851562 294.921875 46.964844 303.339844 38.421875 C 311.757812 29.875 321.511719 23.042969 332.609375 17.917969 C 343.707031 12.796875 355.476562 10.230469 367.914062 10.230469 C 380.601562 10.230469 392.496094 12.796875 403.59375 17.917969 C 414.691406 23.042969 424.382812 29.9375 432.675781 38.609375 C 440.96875 47.269531 447.550781 57.207031 452.425781 68.433594 C 457.308594 79.660156 459.75 91.378906 459.75 103.578125 Z M 367.914062 141.261719 C 373.035156 141.261719 377.789062 140.230469 382.175781 138.160156 C 386.570312 136.082031 390.351562 133.273438 393.523438 129.738281 C 396.691406 126.207031 399.125 122.1875 400.832031 117.671875 C 402.546875 113.152344 403.40625 108.453125 403.40625 103.578125 C 403.40625 98.695312 402.546875 93.996094 400.832031 89.484375 C 399.125 84.960938 396.753906 80.933594 393.710938 77.398438 C 390.664062 73.867188 386.882812 71.066406 382.363281 68.996094 C 377.851562 66.917969 372.917969 65.878906 367.554688 65.878906 C 362.433594 65.878906 357.738281 66.917969 353.464844 68.996094 C 349.195312 71.066406 345.472656 73.867188 342.304688 77.398438 C 339.132812 80.933594 336.695312 84.960938 334.980469 89.484375 C 333.273438 93.996094 332.421875 98.695312 332.421875 103.578125 C 332.421875 108.453125 333.273438 113.152344 334.980469 117.671875 C 336.695312 122.1875 339.132812 126.207031 342.304688 129.738281 C 345.472656 133.273438 349.25 136.082031 353.636719 138.160156 C 358.03125 140.230469 362.789062 141.261719 367.914062 141.261719 Z M 367.914062 141.261719 " fill-opacity="1" fill-rule="nonzero"/><path fill="#000000" d="M 637.5625 192.511719 L 581.214844 192.511719 L 581.214844 89.667969 C 581.214844 82.832031 579.503906 77.15625 576.085938 72.644531 C 572.675781 68.132812 567.679688 65.878906 561.09375 65.878906 C 554.503906 65.878906 549.5 68.132812 546.082031 72.644531 C 542.671875 77.15625 540.96875 82.832031 540.96875 89.667969 L 540.96875 192.511719 L 484.609375 192.511719 L 484.609375 89.296875 C 484.609375 77.832031 486.316406 67.28125 489.738281 57.644531 C 493.15625 48 498.152344 39.644531 504.730469 32.574219 C 511.316406 25.496094 519.308594 20.003906 528.703125 16.09375 C 538.09375 12.1875 548.890625 10.230469 561.09375 10.230469 C 573.289062 10.230469 584.144531 12.25 593.652344 16.28125 C 603.167969 20.304688 611.160156 25.792969 617.625 32.746094 C 624.085938 39.699219 629.023438 48.054688 632.433594 57.816406 C 635.851562 67.578125 637.5625 78.070312 637.5625 89.296875 Z M 637.5625 192.511719 " fill-opacity="1" fill-rule="nonzero"/><path fill="#000000" d="M 820.488281 192.511719 L 764.144531 192.511719 L 764.144531 89.667969 C 764.144531 82.832031 762.433594 77.15625 759.015625 72.644531 C 755.605469 68.132812 750.609375 65.878906 744.023438 65.878906 C 737.433594 65.878906 732.429688 68.132812 729.011719 72.644531 C 725.601562 77.15625 723.898438 82.832031 723.898438 89.667969 L 723.898438 192.511719 L 667.539062 192.511719 L 667.539062 89.296875 C 667.539062 77.832031 669.246094 67.28125 672.667969 57.644531 C 676.085938 48 681.082031 39.644531 687.660156 32.574219 C 694.246094 25.496094 702.238281 20.003906 711.632812 16.09375 C 721.023438 12.1875 731.820312 10.230469 744.023438 10.230469 C 756.21875 10.230469 767.074219 12.25 776.582031 16.28125 C 786.097656 20.304688 794.089844 25.792969 800.554688 32.746094 C 807.015625 39.699219 811.953125 48.054688 815.363281 57.816406 C 818.78125 67.578125 820.488281 78.070312 820.488281 89.296875 Z M 820.488281 192.511719 " fill-opacity="1" fill-rule="nonzero"/><path fill="#000000" d="M 1029.027344 103.578125 C 1029.027344 116.019531 1026.585938 127.851562 1021.703125 139.078125 C 1016.828125 150.296875 1010.183594 160.238281 1001.769531 168.90625 C 993.359375 177.566406 983.601562 184.398438 972.496094 189.410156 C 961.398438 194.40625 949.632812 196.90625 937.191406 196.90625 C 924.753906 196.90625 912.988281 194.40625 901.890625 189.410156 C 890.792969 184.398438 881.035156 177.566406 872.617188 168.90625 C 864.199219 160.238281 857.550781 150.296875 852.667969 139.078125 C 847.792969 127.851562 845.355469 116.019531 845.355469 103.578125 C 845.355469 91.128906 847.792969 79.292969 852.667969 68.074219 C 857.550781 56.851562 864.199219 46.964844 872.617188 38.421875 C 881.035156 29.875 890.792969 23.042969 901.890625 17.917969 C 912.988281 12.796875 924.753906 10.230469 937.191406 10.230469 C 949.878906 10.230469 961.773438 12.796875 972.871094 17.917969 C 983.96875 23.042969 993.664062 29.9375 1001.957031 38.609375 C 1010.246094 47.269531 1016.828125 57.207031 1021.703125 68.433594 C 1026.585938 79.660156 1029.027344 91.378906 1029.027344 103.578125 Z M 937.191406 141.261719 C 942.3125 141.261719 947.066406 140.230469 951.453125 138.160156 C 955.851562 136.082031 959.628906 133.273438 962.800781 129.738281 C 965.96875 126.207031 968.40625 122.1875 970.113281 117.671875 C 971.828125 113.152344 972.683594 108.453125 972.683594 103.578125 C 972.683594 98.695312 971.828125 93.996094 970.113281 89.484375 C 968.40625 84.960938 966.03125 80.933594 962.988281 77.398438 C 959.941406 73.867188 956.160156 71.066406 951.640625 68.996094 C 947.128906 66.917969 942.195312 65.878906 936.835938 65.878906 C 931.710938 65.878906 927.015625 66.917969 922.742188 68.996094 C 918.472656 71.066406 914.753906 73.867188 911.585938 77.398438 C 908.414062 80.933594 905.972656 84.960938 904.257812 89.484375 C 902.550781 93.996094 901.703125 98.695312 901.703125 103.578125 C 901.703125 108.453125 902.550781 113.152344 904.257812 117.671875 C 905.972656 122.1875 908.414062 126.207031 911.585938 129.738281 C 914.753906 133.273438 918.527344 136.082031 922.914062 138.160156 C 927.3125 140.230469 932.070312 141.261719 937.191406 141.261719 Z M 937.191406 141.261719 " fill-opacity="1" fill-rule="nonzero"/><path fill="#000000" d="M 1162.570312 14.628906 L 1162.570312 62.214844 L 1116.09375 62.214844 C 1113.410156 62.214844 1110.847656 63.007812 1108.410156 64.597656 C 1105.976562 66.179688 1104.761719 68.191406 1104.761719 70.632812 C 1104.761719 74.53125 1112.074219 79.410156 1126.707031 85.273438 C 1141.347656 91.128906 1152.753906 98.082031 1160.921875 106.132812 C 1169.085938 114.191406 1173.171875 124.3125 1173.171875 136.507812 C 1173.171875 155.050781 1167.800781 169.023438 1157.070312 178.417969 C 1146.347656 187.8125 1131.835938 192.511719 1113.535156 192.511719 L 1046.578125 192.511719 L 1046.578125 142.726562 L 1103.65625 142.726562 C 1106.335938 142.726562 1108.589844 142.058594 1110.417969 140.714844 C 1112.246094 139.375 1113.164062 137.363281 1113.164062 134.683594 C 1113.164062 131.511719 1111.332031 129.078125 1107.675781 127.371094 C 1104.015625 125.65625 1098.652344 123.332031 1091.574219 120.402344 C 1084.75 117.480469 1078.644531 114.4375 1073.277344 111.265625 C 1067.914062 108.082031 1063.402344 104.363281 1059.746094 100.101562 C 1056.089844 95.828125 1053.28125 90.886719 1051.332031 85.273438 C 1049.375 79.660156 1048.398438 72.953125 1048.398438 65.144531 C 1048.398438 57.328125 1049.921875 50.3125 1052.96875 44.097656 C 1056.023438 37.871094 1060.171875 32.566406 1065.421875 28.175781 C 1070.664062 23.78125 1076.644531 20.425781 1083.34375 18.105469 C 1090.054688 15.789062 1097.070312 14.628906 1104.386719 14.628906 Z M 1162.570312 14.628906 " fill-opacity="1" fill-rule="nonzero"/><path fill="#000000" d="M 1203.027344 49.972656 L 1198.585938 49.972656 L 1198.585938 41.820312 L 1203.027344 41.820312 C 1206.359375 41.820312 1208.082031 43.308594 1208.082031 45.878906 C 1208.082031 48.453125 1206.359375 49.972656 1203.027344 49.972656 Z M 1211.90625 45.878906 C 1211.90625 41.351562 1208.574219 38.605469 1203.203125 38.605469 L 1194.785156 38.605469 L 1194.785156 59.0625 L 1198.585938 59.0625 L 1198.585938 53.101562 L 1203.203125 53.101562 C 1203.464844 53.101562 1203.726562 53.101562 1203.988281 53.070312 L 1208.171875 59.0625 L 1212.257812 59.0625 L 1207.554688 52.339844 C 1210.328125 51.257812 1211.90625 48.980469 1211.90625 45.878906 " fill-opacity="1" fill-rule="nonzero"/><g clip-path="url(#4f360e27b1)"><path fill="#000000" d="M 1202.636719 67.152344 C 1192.902344 67.152344 1184.980469 59.226562 1184.980469 49.488281 C 1184.980469 39.75 1192.902344 31.824219 1202.636719 31.824219 C 1212.375 31.824219 1220.296875 39.75 1220.296875 49.488281 C 1220.296875 59.226562 1212.375 67.152344 1202.636719 67.152344 Z M 1202.636719 28.117188 C 1190.855469 28.117188 1181.277344 37.703125 1181.277344 49.488281 C 1181.277344 61.273438 1190.855469 70.859375 1202.636719 70.859375 C 1214.421875 70.859375 1224.003906 61.273438 1224.003906 49.488281 C 1224.003906 37.703125 1214.421875 28.117188 1202.636719 28.117188 " fill-opacity="1" fill-rule="nonzero"/></g></svg>