<svg xmlns="http://www.w3.org/2000/svg" xmlns:xlink="http://www.w3.org/1999/xlink" width="500" zoomAndPan="magnify" viewBox="0 0 375 254.999984" height="340" preserveAspectRatio="xMidYMid meet" version="1.0"><defs><clipPath id="94c7acc757"><path d="M 159.589844 6.449219 L 264 6.449219 L 264 111 L 159.589844 111 Z M 159.589844 6.449219 " clip-rule="nonzero"/></clipPath><clipPath id="db50a667ae"><path d="M 205.265625 29 L 309.949219 29 L 309.949219 133.707031 L 205.265625 133.707031 Z M 205.265625 29 " clip-rule="nonzero"/></clipPath><clipPath id="2e06c5f331"><path d="M 180 96 L 257.621094 96 L 257.621094 173.546875 L 180 173.546875 Z M 180 96 " clip-rule="nonzero"/></clipPath><clipPath id="53f0ab829b"><path d="M 352.84375 173.546875 L 365.375 173.546875 L 365.375 186.082031 L 352.84375 186.082031 Z M 352.84375 173.546875 " clip-rule="nonzero"/></clipPath></defs><g clip-path="url(#94c7acc757)"><path fill="#ff5757" d="M 263.664062 58.585938 C 263.664062 60.289062 263.578125 61.992188 263.414062 63.691406 C 263.25 65.390625 262.996094 67.078125 262.664062 68.753906 C 262.328125 70.429688 261.917969 72.082031 261.425781 73.714844 C 260.929688 75.351562 260.355469 76.957031 259.703125 78.53125 C 259.054688 80.113281 258.324219 81.652344 257.523438 83.15625 C 256.714844 84.664062 255.84375 86.125 254.894531 87.546875 C 253.949219 88.96875 252.933594 90.335938 251.851562 91.65625 C 250.773438 92.976562 249.628906 94.242188 248.425781 95.445312 C 247.222656 96.65625 245.960938 97.800781 244.640625 98.882812 C 243.324219 99.96875 241.957031 100.980469 240.542969 101.929688 C 239.125 102.878906 237.664062 103.753906 236.160156 104.558594 C 234.660156 105.363281 233.117188 106.09375 231.546875 106.746094 C 229.972656 107.398438 228.367188 107.972656 226.738281 108.46875 C 225.105469 108.964844 223.457031 109.378906 221.785156 109.714844 C 220.109375 110.046875 218.429688 110.296875 216.734375 110.464844 C 215.039062 110.632812 213.339844 110.714844 211.632812 110.714844 C 209.929688 110.714844 208.230469 110.632812 206.535156 110.464844 C 204.835938 110.296875 203.152344 110.046875 201.480469 109.714844 C 199.8125 109.378906 198.160156 108.964844 196.53125 108.46875 C 194.898438 107.972656 193.296875 107.398438 191.722656 106.746094 C 190.152344 106.09375 188.609375 105.363281 187.109375 104.558594 C 185.601562 103.753906 184.144531 102.878906 182.726562 101.929688 C 181.3125 100.980469 179.941406 99.96875 178.628906 98.882812 C 177.308594 97.800781 176.046875 96.65625 174.84375 95.445312 C 173.636719 94.242188 172.496094 92.976562 171.414062 91.65625 C 170.332031 90.335938 169.320312 88.96875 168.371094 87.546875 C 167.425781 86.125 166.550781 84.664062 165.746094 83.15625 C 164.945312 81.652344 164.214844 80.113281 163.5625 78.53125 C 162.914062 76.957031 162.339844 75.351562 161.84375 73.714844 C 161.347656 72.082031 160.933594 70.429688 160.605469 68.753906 C 160.273438 67.078125 160.019531 65.390625 159.855469 63.691406 C 159.691406 61.992188 159.601562 60.289062 159.601562 58.585938 C 159.601562 56.875 159.691406 55.171875 159.855469 53.472656 C 160.019531 51.773438 160.273438 50.085938 160.605469 48.410156 C 160.933594 46.738281 161.347656 45.082031 161.84375 43.449219 C 162.339844 41.8125 162.914062 40.207031 163.5625 38.632812 C 164.214844 37.050781 164.945312 35.511719 165.746094 34.007812 C 166.550781 32.5 167.425781 31.039062 168.371094 29.621094 C 169.320312 28.199219 170.332031 26.832031 171.414062 25.507812 C 172.496094 24.191406 173.636719 22.925781 174.84375 21.71875 C 176.046875 20.511719 177.308594 19.367188 178.628906 18.285156 C 179.941406 17.199219 181.3125 16.183594 182.726562 15.234375 C 184.144531 14.285156 185.601562 13.410156 187.109375 12.605469 C 188.609375 11.800781 190.152344 11.070312 191.722656 10.417969 C 193.296875 9.765625 194.898438 9.191406 196.53125 8.695312 C 198.160156 8.199219 199.8125 7.785156 201.480469 7.449219 C 203.152344 7.117188 204.835938 6.867188 206.535156 6.699219 C 208.230469 6.53125 209.929688 6.449219 211.632812 6.449219 C 213.339844 6.449219 215.039062 6.53125 216.734375 6.699219 C 218.429688 6.867188 220.109375 7.117188 221.785156 7.449219 C 223.457031 7.785156 225.105469 8.199219 226.738281 8.695312 C 228.367188 9.191406 229.972656 9.765625 231.546875 10.417969 C 233.117188 11.070312 234.660156 11.800781 236.160156 12.605469 C 237.664062 13.410156 239.125 14.285156 240.542969 15.234375 C 241.957031 16.183594 243.324219 17.199219 244.640625 18.285156 C 245.960938 19.367188 247.222656 20.511719 248.425781 21.71875 C 249.628906 22.925781 250.773438 24.191406 251.851562 25.507812 C 252.933594 26.832031 253.949219 28.199219 254.894531 29.621094 C 255.84375 31.039062 256.714844 32.5 257.523438 34.007812 C 258.324219 35.511719 259.054688 37.050781 259.703125 38.632812 C 260.355469 40.207031 260.929688 41.8125 261.425781 43.449219 C 261.917969 45.082031 262.328125 46.738281 262.664062 48.410156 C 262.996094 50.085938 263.25 51.773438 263.414062 53.472656 C 263.578125 55.171875 263.664062 56.875 263.664062 58.585938 Z M 263.664062 58.585938 " fill-opacity="1" fill-rule="nonzero"/></g><g clip-path="url(#db50a667ae)"><path fill="#ffbd59" d="M 309.902344 81.25 C 309.902344 82.957031 309.820312 84.660156 309.652344 86.359375 C 309.484375 88.058594 309.234375 89.746094 308.90625 91.421875 C 308.570312 93.097656 308.15625 94.75 307.660156 96.382812 C 307.167969 98.019531 306.59375 99.625 305.941406 101.199219 C 305.289062 102.777344 304.5625 104.320312 303.757812 105.824219 C 302.957031 107.332031 302.082031 108.792969 301.132812 110.214844 C 300.1875 111.632812 299.175781 113.003906 298.089844 114.324219 C 297.011719 115.640625 295.867188 116.910156 294.664062 118.113281 C 293.457031 119.320312 292.199219 120.46875 290.878906 121.550781 C 289.5625 122.628906 288.195312 123.648438 286.777344 124.597656 C 285.363281 125.546875 283.902344 126.421875 282.398438 127.226562 C 280.898438 128.03125 279.359375 128.761719 277.78125 129.414062 C 276.207031 130.066406 274.605469 130.640625 272.976562 131.136719 C 271.347656 131.632812 269.691406 132.046875 268.023438 132.382812 C 266.351562 132.714844 264.667969 132.964844 262.972656 133.132812 C 261.277344 133.300781 259.574219 133.382812 257.875 133.382812 C 256.167969 133.382812 254.464844 133.300781 252.773438 133.132812 C 251.078125 132.964844 249.394531 132.714844 247.722656 132.382812 C 246.050781 132.046875 244.402344 131.632812 242.769531 131.136719 C 241.136719 130.640625 239.535156 130.066406 237.960938 129.414062 C 236.386719 128.761719 234.851562 128.03125 233.34375 127.226562 C 231.84375 126.421875 230.386719 125.546875 228.964844 124.597656 C 227.546875 123.648438 226.179688 122.628906 224.867188 121.550781 C 223.550781 120.46875 222.285156 119.320312 221.082031 118.113281 C 219.875 116.910156 218.734375 115.640625 217.652344 114.324219 C 216.574219 113.003906 215.558594 111.632812 214.609375 110.214844 C 213.667969 108.792969 212.792969 107.332031 211.988281 105.824219 C 211.183594 104.320312 210.457031 102.777344 209.800781 101.199219 C 209.148438 99.625 208.578125 98.019531 208.082031 96.382812 C 207.585938 94.75 207.175781 93.097656 206.84375 91.421875 C 206.507812 89.746094 206.261719 88.058594 206.09375 86.359375 C 205.925781 84.660156 205.84375 82.957031 205.84375 81.25 C 205.84375 79.542969 205.925781 77.839844 206.09375 76.136719 C 206.261719 74.441406 206.507812 72.753906 206.84375 71.078125 C 207.175781 69.402344 207.585938 67.75 208.082031 66.117188 C 208.578125 64.480469 209.148438 62.875 209.800781 61.300781 C 210.457031 59.71875 211.183594 58.179688 211.988281 56.675781 C 212.792969 55.167969 213.667969 53.707031 214.609375 52.289062 C 215.558594 50.863281 216.574219 49.5 217.652344 48.175781 C 218.734375 46.855469 219.875 45.59375 221.082031 44.386719 C 222.285156 43.179688 223.550781 42.03125 224.867188 40.953125 C 226.179688 39.867188 227.546875 38.851562 228.964844 37.902344 C 230.386719 36.953125 231.84375 36.078125 233.34375 35.273438 C 234.851562 34.46875 236.386719 33.738281 237.960938 33.085938 C 239.535156 32.429688 241.136719 31.855469 242.769531 31.359375 C 244.402344 30.863281 246.050781 30.453125 247.722656 30.117188 C 249.394531 29.785156 251.078125 29.535156 252.773438 29.367188 C 254.464844 29.199219 256.167969 29.117188 257.875 29.117188 C 259.574219 29.117188 261.277344 29.199219 262.972656 29.367188 C 264.667969 29.535156 266.351562 29.785156 268.023438 30.117188 C 269.691406 30.453125 271.347656 30.863281 272.976562 31.359375 C 274.605469 31.855469 276.207031 32.429688 277.78125 33.085938 C 279.359375 33.738281 280.898438 34.46875 282.398438 35.273438 C 283.902344 36.078125 285.363281 36.953125 286.777344 37.902344 C 288.195312 38.851562 289.5625 39.867188 290.878906 40.953125 C 292.199219 42.03125 293.457031 43.179688 294.664062 44.386719 C 295.867188 45.59375 297.011719 46.855469 298.089844 48.175781 C 299.175781 49.5 300.1875 50.863281 301.132812 52.289062 C 302.082031 53.707031 302.957031 55.167969 303.757812 56.675781 C 304.5625 58.179688 305.289062 59.71875 305.941406 61.300781 C 306.59375 62.875 307.167969 64.480469 307.660156 66.117188 C 308.15625 67.75 308.570312 69.402344 308.90625 71.078125 C 309.234375 72.753906 309.484375 74.441406 309.652344 76.136719 C 309.820312 77.839844 309.902344 79.542969 309.902344 81.25 Z M 309.902344 81.25 " fill-opacity="1" fill-rule="nonzero"/></g><g clip-path="url(#2e06c5f331)"><path fill="#fff18f" d="M 257.058594 135.199219 C 257.058594 136.449219 256.996094 137.703125 256.875 138.957031 C 256.75 140.207031 256.570312 141.445312 256.324219 142.679688 C 256.078125 143.910156 255.773438 145.128906 255.410156 146.328125 C 255.046875 147.53125 254.625 148.714844 254.144531 149.871094 C 253.667969 151.03125 253.128906 152.167969 252.539062 153.273438 C 251.945312 154.382812 251.304688 155.457031 250.605469 156.503906 C 249.910156 157.546875 249.167969 158.558594 248.371094 159.527344 C 247.574219 160.496094 246.734375 161.429688 245.847656 162.316406 C 244.964844 163.203125 244.03125 164.042969 243.066406 164.84375 C 242.09375 165.640625 241.089844 166.386719 240.046875 167.085938 C 239.003906 167.78125 237.929688 168.425781 236.824219 169.019531 C 235.71875 169.613281 234.589844 170.148438 233.429688 170.628906 C 232.273438 171.109375 231.09375 171.535156 229.894531 171.898438 C 228.691406 172.261719 227.476562 172.570312 226.25 172.8125 C 225.019531 173.054688 223.78125 173.238281 222.535156 173.367188 C 221.285156 173.488281 220.039062 173.546875 218.785156 173.546875 C 217.53125 173.546875 216.277344 173.488281 215.027344 173.367188 C 213.785156 173.238281 212.542969 173.054688 211.316406 172.8125 C 210.085938 172.570312 208.871094 172.261719 207.671875 171.898438 C 206.472656 171.535156 205.292969 171.109375 204.136719 170.628906 C 202.976562 170.148438 201.84375 169.613281 200.738281 169.019531 C 199.632812 168.425781 198.558594 167.78125 197.519531 167.085938 C 196.472656 166.386719 195.46875 165.640625 194.503906 164.84375 C 193.53125 164.042969 192.605469 163.203125 191.71875 162.316406 C 190.828125 161.429688 189.988281 160.496094 189.191406 159.527344 C 188.402344 158.558594 187.652344 157.546875 186.957031 156.503906 C 186.261719 155.457031 185.617188 154.382812 185.023438 153.273438 C 184.4375 152.167969 183.902344 151.03125 183.417969 149.871094 C 182.941406 148.714844 182.519531 147.53125 182.15625 146.328125 C 181.792969 145.128906 181.488281 143.910156 181.242188 142.679688 C 181 141.445312 180.8125 140.207031 180.691406 138.957031 C 180.570312 137.703125 180.507812 136.449219 180.507812 135.199219 C 180.507812 133.941406 180.570312 132.6875 180.691406 131.4375 C 180.8125 130.1875 181 128.945312 181.242188 127.714844 C 181.488281 126.480469 181.792969 125.269531 182.15625 124.0625 C 182.519531 122.859375 182.941406 121.683594 183.417969 120.519531 C 183.902344 119.359375 184.4375 118.226562 185.023438 117.117188 C 185.617188 116.011719 186.261719 114.933594 186.957031 113.886719 C 187.652344 112.84375 188.402344 111.839844 189.191406 110.867188 C 189.988281 109.894531 190.828125 108.964844 191.71875 108.078125 C 192.605469 107.191406 193.53125 106.347656 194.503906 105.550781 C 195.46875 104.753906 196.472656 104.003906 197.519531 103.308594 C 198.558594 102.609375 199.632812 101.964844 200.738281 101.375 C 201.84375 100.78125 202.976562 100.246094 204.136719 99.761719 C 205.292969 99.285156 206.472656 98.863281 207.671875 98.496094 C 208.871094 98.132812 210.085938 97.828125 211.316406 97.582031 C 212.542969 97.335938 213.785156 97.152344 215.027344 97.03125 C 216.277344 96.902344 217.53125 96.84375 218.785156 96.84375 C 220.039062 96.84375 221.285156 96.902344 222.535156 97.03125 C 223.78125 97.152344 225.019531 97.335938 226.25 97.582031 C 227.476562 97.828125 228.691406 98.132812 229.894531 98.496094 C 231.09375 98.863281 232.273438 99.285156 233.429688 99.761719 C 234.589844 100.246094 235.71875 100.78125 236.824219 101.375 C 237.929688 101.964844 239.003906 102.609375 240.046875 103.308594 C 241.089844 104.003906 242.09375 104.753906 243.066406 105.550781 C 244.03125 106.347656 244.964844 107.191406 245.847656 108.078125 C 246.734375 108.964844 247.574219 109.894531 248.371094 110.867188 C 249.167969 111.839844 249.910156 112.84375 250.605469 113.886719 C 251.304688 114.933594 251.945312 116.011719 252.539062 117.117188 C 253.128906 118.226562 253.667969 119.359375 254.144531 120.519531 C 254.625 121.683594 255.046875 122.859375 255.410156 124.0625 C 255.773438 125.269531 256.078125 126.480469 256.324219 127.714844 C 256.570312 128.945312 256.75 130.1875 256.875 131.4375 C 256.996094 132.6875 257.058594 133.941406 257.058594 135.199219 Z M 257.058594 135.199219 " fill-opacity="1" fill-rule="nonzero"/></g><path fill="#0000ff" d="M 183.207031 46.65625 C 303.773438 146.316406 123.6875 279.15625 62.6875 151.269531 C 56.90625 139.136719 57.703125 112.523438 79.707031 112.523438 C 99.457031 112.523438 123.019531 90.632812 101.339844 79.9375 C 78.339844 68.570312 70.277344 -46.640625 183.207031 46.65625 Z M 183.207031 46.65625 " fill-opacity="1" fill-rule="evenodd"/><path fill="#00ffff" d="M 175.515625 129.285156 C 208.933594 129.285156 236.019531 156.320312 236.019531 189.671875 C 236.019531 223.050781 208.933594 250.085938 175.515625 250.085938 C 142.097656 250.085938 115.007812 223.050781 115.007812 189.671875 C 115.007812 156.320312 142.097656 129.285156 175.515625 129.285156 Z M 175.515625 129.285156 " fill-opacity="0.549" fill-rule="evenodd"/><path fill="#0000ff" d="M 247.90625 133.613281 C 267.925781 133.613281 284.148438 149.808594 284.148438 169.789062 C 284.148438 189.769531 267.925781 205.964844 247.90625 205.964844 C 227.882812 205.964844 211.632812 189.769531 211.632812 169.789062 C 211.632812 149.808594 227.882812 133.613281 247.90625 133.613281 Z M 247.90625 133.613281 " fill-opacity="0.549" fill-rule="evenodd"/><path fill="#000000" d="M 359.222656 179.957031 L 357.917969 179.957031 L 357.917969 177.566406 L 359.222656 177.566406 C 360.195312 177.566406 360.703125 178.003906 360.703125 178.757812 C 360.703125 179.511719 360.195312 179.957031 359.222656 179.957031 Z M 361.824219 178.757812 C 361.824219 177.429688 360.847656 176.625 359.269531 176.625 L 356.800781 176.625 L 356.800781 182.621094 L 357.917969 182.621094 L 357.917969 180.875 L 359.269531 180.875 C 359.347656 180.875 359.425781 180.875 359.503906 180.863281 L 360.726562 182.621094 L 361.929688 182.621094 L 360.550781 180.648438 C 361.363281 180.332031 361.824219 179.667969 361.824219 178.757812 " fill-opacity="1" fill-rule="nonzero"/><g clip-path="url(#53f0ab829b)"><path fill="#000000" d="M 359.109375 184.992188 C 356.25 184.992188 353.925781 182.667969 353.925781 179.8125 C 353.925781 176.960938 356.25 174.636719 359.109375 174.636719 C 361.964844 174.636719 364.289062 176.960938 364.289062 179.8125 C 364.289062 182.667969 361.964844 184.992188 359.109375 184.992188 Z M 359.109375 173.546875 C 355.652344 173.546875 352.84375 176.359375 352.84375 179.8125 C 352.84375 183.269531 355.652344 186.082031 359.109375 186.082031 C 362.5625 186.082031 365.375 183.269531 365.375 179.8125 C 365.375 176.359375 362.5625 173.546875 359.109375 173.546875 " fill-opacity="1" fill-rule="nonzero"/></g><path fill="#000000" d="M 43.636719 173.683594 L 43.636719 189.382812 L 35.945312 189.382812 C 32.625 189.382812 30.027344 190.324219 28.144531 192.203125 C 26.273438 194.074219 25.34375 196.671875 25.34375 200.003906 C 25.34375 203.324219 26.273438 205.9375 28.144531 207.851562 C 30.027344 209.757812 32.625 210.707031 35.945312 210.707031 L 43.636719 210.707031 L 43.636719 226.304688 L 32.914062 226.304688 C 29.664062 226.304688 26.527344 225.671875 23.5 224.40625 C 20.46875 223.144531 17.816406 221.355469 15.542969 219.042969 C 13.269531 216.738281 11.445312 213.957031 10.078125 210.707031 C 8.707031 207.460938 8.023438 203.894531 8.023438 200.003906 C 8.023438 196.023438 8.726562 192.414062 10.128906 189.175781 C 11.53125 185.929688 13.390625 183.167969 15.699219 180.890625 C 18.007812 178.617188 20.660156 176.847656 23.65625 175.582031 C 26.65625 174.320312 29.746094 173.683594 32.914062 173.683594 Z M 43.636719 173.683594 " fill-opacity="1" fill-rule="nonzero"/><path fill="#000000" d="M 66.914062 173.683594 L 66.914062 182.457031 L 67.125 182.457031 C 68.203125 179.28125 69.84375 177.023438 72.050781 175.6875 C 74.253906 174.355469 77.664062 173.683594 82.285156 173.683594 L 82.285156 189.488281 C 79.464844 189.710938 77.207031 189.984375 75.515625 190.308594 C 73.816406 190.632812 72.503906 191.195312 71.5625 191.996094 C 70.621094 192.789062 69.988281 193.902344 69.664062 195.335938 C 69.339844 196.777344 69.179688 198.691406 69.179688 201.082031 L 69.179688 226.304688 L 51.859375 226.304688 L 51.859375 173.683594 Z M 66.914062 173.683594 " fill-opacity="1" fill-rule="nonzero"/><path fill="#000000" d="M 141.171875 200.003906 C 141.171875 203.683594 140.449219 207.183594 139.011719 210.5 C 137.574219 213.820312 135.605469 216.761719 133.113281 219.324219 C 130.613281 221.890625 127.726562 223.914062 124.445312 225.398438 C 121.160156 226.867188 117.675781 227.609375 114 227.609375 C 110.320312 227.609375 106.835938 226.867188 103.554688 225.398438 C 100.269531 223.914062 97.382812 221.890625 94.886719 219.324219 C 92.402344 216.761719 90.4375 213.820312 88.988281 210.5 C 87.546875 207.183594 86.828125 203.683594 86.828125 200.003906 C 86.828125 196.3125 87.546875 192.808594 88.988281 189.488281 C 90.4375 186.171875 92.402344 183.253906 94.886719 180.734375 C 97.382812 178.207031 100.269531 176.183594 103.554688 174.660156 C 106.835938 173.140625 110.320312 172.378906 114 172.378906 C 117.757812 172.378906 121.28125 173.140625 124.566406 174.660156 C 127.847656 176.183594 130.714844 178.222656 133.164062 180.785156 C 135.621094 183.339844 137.574219 186.28125 139.011719 189.609375 C 140.449219 192.929688 141.171875 196.394531 141.171875 200.003906 Z M 114 211.140625 C 115.519531 211.140625 116.929688 210.835938 118.230469 210.21875 C 119.527344 209.605469 120.640625 208.773438 121.570312 207.730469 C 122.511719 206.6875 123.234375 205.5 123.746094 204.164062 C 124.257812 202.832031 124.511719 201.441406 124.511719 200.003906 C 124.511719 198.554688 124.257812 197.160156 123.746094 195.824219 C 123.234375 194.492188 122.527344 193.300781 121.625 192.257812 C 120.726562 191.210938 119.613281 190.386719 118.28125 189.765625 C 116.945312 189.152344 115.484375 188.84375 113.894531 188.84375 C 112.371094 188.84375 110.980469 189.152344 109.71875 189.765625 C 108.464844 190.386719 107.367188 191.210938 106.429688 192.257812 C 105.488281 193.300781 104.761719 194.492188 104.253906 195.824219 C 103.753906 197.160156 103.503906 198.554688 103.503906 200.003906 C 103.503906 201.441406 103.753906 202.832031 104.253906 204.164062 C 104.761719 205.5 105.488281 206.6875 106.429688 207.730469 C 107.367188 208.773438 108.488281 209.605469 109.789062 210.21875 C 111.085938 210.835938 112.488281 211.140625 114 211.140625 Z M 114 211.140625 " fill-opacity="1" fill-rule="nonzero"/><path fill="#000000" d="M 193.789062 226.304688 L 177.113281 226.304688 L 177.113281 195.878906 C 177.113281 193.859375 176.609375 192.183594 175.601562 190.847656 C 174.589844 189.515625 173.109375 188.84375 171.160156 188.84375 C 169.210938 188.84375 167.734375 189.515625 166.722656 190.847656 C 165.714844 192.183594 165.207031 193.859375 165.207031 195.878906 L 165.207031 226.304688 L 148.535156 226.304688 L 148.535156 195.773438 C 148.535156 192.386719 149.039062 189.261719 150.046875 186.40625 C 151.058594 183.554688 152.539062 181.082031 154.488281 178.992188 C 156.4375 176.894531 158.792969 175.269531 161.570312 174.121094 C 164.355469 172.960938 167.550781 172.378906 171.160156 172.378906 C 174.769531 172.378906 177.976562 172.980469 180.789062 174.171875 C 183.605469 175.367188 185.972656 176.992188 187.890625 179.046875 C 189.804688 181.097656 191.265625 183.570312 192.277344 186.460938 C 193.285156 189.351562 193.789062 192.457031 193.789062 195.773438 Z M 193.789062 226.304688 " fill-opacity="1" fill-rule="nonzero"/><path fill="#000000" d="M 247.917969 226.304688 L 231.242188 226.304688 L 231.242188 195.878906 C 231.242188 193.859375 230.738281 192.183594 229.726562 190.847656 C 228.71875 189.515625 227.238281 188.84375 225.289062 188.84375 C 223.339844 188.84375 221.859375 189.515625 220.851562 190.847656 C 219.839844 192.183594 219.335938 193.859375 219.335938 195.878906 L 219.335938 226.304688 L 202.660156 226.304688 L 202.660156 195.773438 C 202.660156 192.386719 203.167969 189.261719 204.175781 186.40625 C 205.1875 183.554688 206.664062 181.082031 208.613281 178.992188 C 210.5625 176.894531 212.921875 175.269531 215.699219 174.121094 C 218.484375 172.960938 221.679688 172.378906 225.289062 172.378906 C 228.898438 172.378906 232.105469 172.980469 234.914062 174.171875 C 237.734375 175.367188 240.101562 176.992188 242.015625 179.046875 C 243.933594 181.097656 245.394531 183.570312 246.402344 186.460938 C 247.414062 189.351562 247.917969 192.457031 247.917969 195.773438 Z M 247.917969 226.304688 " fill-opacity="1" fill-rule="nonzero"/><path fill="#000000" d="M 309.617188 200.003906 C 309.617188 203.683594 308.894531 207.183594 307.460938 210.5 C 306.019531 213.820312 304.050781 216.761719 301.558594 219.324219 C 299.0625 221.890625 296.171875 223.914062 292.890625 225.398438 C 289.605469 226.867188 286.125 227.609375 282.445312 227.609375 C 278.765625 227.609375 275.285156 226.867188 272.003906 225.398438 C 268.71875 223.914062 265.828125 221.890625 263.335938 219.324219 C 260.851562 216.761719 258.882812 213.820312 257.433594 210.5 C 255.992188 207.183594 255.277344 203.683594 255.277344 200.003906 C 255.277344 196.3125 255.992188 192.808594 257.433594 189.488281 C 258.882812 186.171875 260.851562 183.253906 263.335938 180.734375 C 265.828125 178.207031 268.71875 176.183594 272.003906 174.660156 C 275.285156 173.140625 278.765625 172.378906 282.445312 172.378906 C 286.207031 172.378906 289.726562 173.140625 293.011719 174.660156 C 296.292969 176.183594 299.160156 178.222656 301.609375 180.785156 C 304.070312 183.339844 306.019531 186.28125 307.460938 189.609375 C 308.894531 192.929688 309.617188 196.394531 309.617188 200.003906 Z M 282.445312 211.140625 C 283.964844 211.140625 285.375 210.835938 286.675781 210.21875 C 287.972656 209.605469 289.085938 208.773438 290.019531 207.730469 C 290.957031 206.6875 291.679688 205.5 292.195312 204.164062 C 292.703125 202.832031 292.960938 201.441406 292.960938 200.003906 C 292.960938 198.554688 292.703125 197.160156 292.195312 195.824219 C 291.679688 194.492188 290.976562 193.300781 290.070312 192.257812 C 289.175781 191.210938 288.058594 190.386719 286.730469 189.765625 C 285.394531 189.152344 283.929688 188.84375 282.34375 188.84375 C 280.820312 188.84375 279.425781 189.152344 278.164062 189.765625 C 276.910156 190.386719 275.816406 191.210938 274.875 192.257812 C 273.933594 193.300781 273.207031 194.492188 272.699219 195.824219 C 272.199219 197.160156 271.949219 198.554688 271.949219 200.003906 C 271.949219 201.441406 272.199219 202.832031 272.699219 204.164062 C 273.207031 205.5 273.933594 206.6875 274.875 207.730469 C 275.816406 208.773438 276.933594 209.605469 278.234375 210.21875 C 279.53125 210.835938 280.9375 211.140625 282.445312 211.140625 Z M 282.445312 211.140625 " fill-opacity="1" fill-rule="nonzero"/><path fill="#000000" d="M 349.128906 173.683594 L 349.128906 187.765625 L 335.378906 187.765625 C 334.585938 187.765625 333.835938 188.003906 333.117188 188.480469 C 332.394531 188.945312 332.035156 189.535156 332.035156 190.253906 C 332.035156 191.402344 334.199219 192.847656 338.53125 194.589844 C 342.855469 196.320312 346.226562 198.375 348.640625 200.75 C 351.066406 203.132812 352.28125 206.125 352.28125 209.734375 C 352.28125 215.222656 350.6875 219.359375 347.511719 222.144531 C 344.328125 224.917969 340.035156 226.304688 334.628906 226.304688 L 314.820312 226.304688 L 314.820312 211.578125 L 331.707031 211.578125 C 332.492188 211.578125 333.160156 211.382812 333.707031 210.984375 C 334.25 210.59375 334.527344 209.992188 334.527344 209.191406 C 334.527344 208.253906 333.976562 207.535156 332.890625 207.035156 C 331.8125 206.523438 330.226562 205.84375 328.136719 204.980469 C 326.117188 204.109375 324.3125 203.207031 322.722656 202.265625 C 321.132812 201.324219 319.792969 200.230469 318.703125 198.976562 C 317.625 197.714844 316.792969 196.25 316.214844 194.589844 C 315.644531 192.917969 315.363281 190.929688 315.363281 188.617188 C 315.363281 186.3125 315.804688 184.242188 316.703125 182.40625 C 317.605469 180.558594 318.835938 178.988281 320.390625 177.6875 C 321.945312 176.390625 323.714844 175.398438 325.699219 174.710938 C 327.683594 174.027344 329.757812 173.683594 331.914062 173.683594 Z M 349.128906 173.683594 " fill-opacity="1" fill-rule="nonzero"/></svg>