<svg xmlns="http://www.w3.org/2000/svg" xmlns:xlink="http://www.w3.org/1999/xlink" width="500" zoomAndPan="magnify" viewBox="0 0 375 374.999991" height="500" preserveAspectRatio="xMidYMid meet" version="1.0"><defs><clipPath id="1016a9d567"><path d="M 153.597656 4.496094 L 307 4.496094 L 307 157.753906 L 153.597656 157.753906 Z M 153.597656 4.496094 " clip-rule="nonzero"/></clipPath><clipPath id="8364b2d8f1"><path d="M 221 37.207031 L 374.558594 37.207031 L 374.558594 190.496094 L 221 190.496094 Z M 221 37.207031 " clip-rule="nonzero"/></clipPath><clipPath id="947969729c"><path d="M 184 136 L 296.847656 136 L 296.847656 248.9375 L 184 248.9375 Z M 184 136 " clip-rule="nonzero"/></clipPath></defs><g clip-path="url(#1016a9d567)"><path fill="#ff5757" d="M 306.554688 80.761719 C 306.554688 83.253906 306.429688 85.75 306.1875 88.238281 C 305.941406 90.71875 305.578125 93.191406 305.089844 95.636719 C 304.601562 98.085938 303.992188 100.507812 303.265625 102.898438 C 302.539062 105.289062 301.695312 107.636719 300.734375 109.945312 C 299.777344 112.25 298.707031 114.507812 297.527344 116.710938 C 296.347656 118.914062 295.0625 121.054688 293.671875 123.128906 C 292.277344 125.203125 290.789062 127.210938 289.203125 129.140625 C 287.617188 131.070312 285.9375 132.917969 284.164062 134.6875 C 282.390625 136.453125 280.542969 138.128906 278.609375 139.714844 C 276.671875 141.296875 274.660156 142.785156 272.582031 144.167969 C 270.5 145.558594 268.355469 146.839844 266.144531 148.015625 C 263.9375 149.195312 261.675781 150.261719 259.363281 151.21875 C 257.050781 152.171875 254.695312 153.015625 252.300781 153.734375 C 249.902344 154.464844 247.476562 155.066406 245.023438 155.554688 C 242.566406 156.042969 240.09375 156.410156 237.601562 156.65625 C 235.109375 156.898438 232.609375 157.019531 230.109375 157.019531 C 227.605469 157.019531 225.105469 156.898438 222.613281 156.65625 C 220.125 156.410156 217.648438 156.042969 215.195312 155.554688 C 212.738281 155.066406 210.3125 154.464844 207.917969 153.734375 C 205.519531 153.015625 203.164062 152.171875 200.851562 151.21875 C 198.539062 150.261719 196.277344 149.195312 194.066406 148.015625 C 191.863281 146.839844 189.71875 145.558594 187.632812 144.167969 C 185.550781 142.785156 183.546875 141.296875 181.613281 139.714844 C 179.675781 138.128906 177.820312 136.453125 176.050781 134.6875 C 174.28125 132.917969 172.601562 131.070312 171.011719 129.140625 C 169.421875 127.210938 167.933594 125.203125 166.546875 123.128906 C 165.152344 121.054688 163.867188 118.914062 162.6875 116.710938 C 161.507812 114.507812 160.4375 112.25 159.476562 109.945312 C 158.519531 107.636719 157.675781 105.289062 156.949219 102.898438 C 156.222656 100.507812 155.617188 98.085938 155.128906 95.636719 C 154.640625 93.191406 154.277344 90.71875 154.027344 88.238281 C 153.78125 85.75 153.660156 83.253906 153.660156 80.761719 C 153.660156 78.261719 153.78125 75.765625 154.027344 73.285156 C 154.277344 70.796875 154.640625 68.332031 155.128906 65.878906 C 155.617188 63.429688 156.222656 61.011719 156.949219 58.621094 C 157.675781 56.226562 158.519531 53.878906 159.476562 51.570312 C 160.4375 49.269531 161.507812 47.011719 162.6875 44.808594 C 163.867188 42.605469 165.152344 40.46875 166.546875 38.386719 C 167.933594 36.3125 169.421875 34.304688 171.011719 32.375 C 172.601562 30.445312 174.28125 28.597656 176.050781 26.828125 C 177.820312 25.066406 179.675781 23.386719 181.613281 21.804688 C 183.546875 20.21875 185.550781 18.738281 187.632812 17.347656 C 189.71875 15.957031 191.863281 14.679688 194.066406 13.5 C 196.277344 12.324219 198.539062 11.253906 200.851562 10.300781 C 203.164062 9.34375 205.519531 8.503906 207.917969 7.777344 C 210.3125 7.050781 212.738281 6.449219 215.195312 5.960938 C 217.648438 5.472656 220.125 5.105469 222.613281 4.859375 C 225.105469 4.617188 227.605469 4.496094 230.109375 4.496094 C 232.609375 4.496094 235.109375 4.617188 237.601562 4.859375 C 240.09375 5.105469 242.566406 5.472656 245.023438 5.960938 C 247.476562 6.449219 249.902344 7.050781 252.300781 7.777344 C 254.695312 8.503906 257.050781 9.34375 259.363281 10.300781 C 261.675781 11.253906 263.9375 12.324219 266.144531 13.5 C 268.355469 14.679688 270.5 15.957031 272.582031 17.347656 C 274.660156 18.738281 276.671875 20.21875 278.609375 21.804688 C 280.542969 23.386719 282.390625 25.066406 284.164062 26.828125 C 285.9375 28.597656 287.617188 30.445312 289.203125 32.375 C 290.789062 34.304688 292.277344 36.3125 293.671875 38.386719 C 295.0625 40.46875 296.347656 42.605469 297.527344 44.808594 C 298.707031 47.011719 299.777344 49.269531 300.734375 51.570312 C 301.695312 53.878906 302.539062 56.226562 303.265625 58.621094 C 303.992188 61.011719 304.601562 63.429688 305.089844 65.878906 C 305.578125 68.332031 305.941406 70.796875 306.1875 73.285156 C 306.429688 75.765625 306.554688 78.261719 306.554688 80.761719 Z M 306.554688 80.761719 " fill-opacity="1" fill-rule="nonzero"/></g><g clip-path="url(#8364b2d8f1)"><path fill="#ffbd59" d="M 374.492188 113.914062 C 374.492188 116.414062 374.371094 118.90625 374.128906 121.390625 C 373.878906 123.878906 373.511719 126.34375 373.023438 128.796875 C 372.535156 131.246094 371.929688 133.664062 371.203125 136.058594 C 370.476562 138.445312 369.636719 140.796875 368.675781 143.105469 C 367.71875 145.410156 366.648438 147.667969 365.46875 149.871094 C 364.289062 152.066406 363.003906 154.214844 361.609375 156.289062 C 360.21875 158.363281 358.730469 160.371094 357.144531 162.300781 C 355.550781 164.230469 353.871094 166.078125 352.105469 167.84375 C 350.332031 169.613281 348.476562 171.285156 346.542969 172.867188 C 344.605469 174.457031 342.601562 175.9375 340.519531 177.328125 C 338.433594 178.714844 336.289062 180 334.082031 181.175781 C 331.878906 182.355469 329.617188 183.417969 327.304688 184.371094 C 324.992188 185.332031 322.636719 186.167969 320.234375 186.894531 C 317.839844 187.621094 315.417969 188.226562 312.957031 188.714844 C 310.507812 189.203125 308.03125 189.570312 305.542969 189.8125 C 303.046875 190.058594 300.550781 190.179688 298.042969 190.179688 C 295.546875 190.179688 293.046875 190.058594 290.550781 189.8125 C 288.058594 189.570312 285.589844 189.203125 283.128906 188.714844 C 280.675781 188.226562 278.253906 187.621094 275.851562 186.894531 C 273.457031 186.167969 271.105469 185.332031 268.789062 184.371094 C 266.476562 183.417969 264.214844 182.355469 262.007812 181.175781 C 259.800781 180 257.65625 178.714844 255.574219 177.328125 C 253.492188 175.9375 251.480469 174.457031 249.546875 172.867188 C 247.609375 171.285156 245.761719 169.613281 243.988281 167.84375 C 242.21875 166.078125 240.539062 164.230469 238.949219 162.300781 C 237.363281 160.371094 235.875 158.363281 234.480469 156.289062 C 233.089844 154.214844 231.808594 152.066406 230.628906 149.871094 C 229.445312 147.667969 228.378906 145.410156 227.417969 143.105469 C 226.460938 140.796875 225.617188 138.445312 224.890625 136.058594 C 224.164062 133.664062 223.554688 131.246094 223.066406 128.796875 C 222.578125 126.34375 222.210938 123.878906 221.964844 121.390625 C 221.722656 118.90625 221.601562 116.414062 221.601562 113.914062 C 221.601562 111.421875 221.722656 108.925781 221.964844 106.445312 C 222.210938 103.957031 222.578125 101.492188 223.066406 99.039062 C 223.554688 96.589844 224.164062 94.167969 224.890625 91.777344 C 225.617188 89.386719 226.460938 87.039062 227.417969 84.730469 C 228.378906 82.421875 229.445312 80.167969 230.628906 77.964844 C 231.808594 75.761719 233.089844 73.621094 234.480469 71.546875 C 235.875 69.472656 237.363281 67.464844 238.949219 65.535156 C 240.539062 63.605469 242.21875 61.757812 243.988281 59.988281 C 245.761719 58.222656 247.609375 56.546875 249.546875 54.964844 C 251.480469 53.378906 253.492188 51.890625 255.574219 50.507812 C 257.65625 49.117188 259.800781 47.832031 262.007812 46.660156 C 264.214844 45.480469 266.476562 44.414062 268.789062 43.457031 C 271.105469 42.503906 273.457031 41.660156 275.851562 40.9375 C 278.253906 40.210938 280.675781 39.605469 283.128906 39.117188 C 285.589844 38.628906 288.058594 38.265625 290.550781 38.019531 C 293.046875 37.777344 295.546875 37.652344 298.042969 37.652344 C 300.550781 37.652344 303.046875 37.777344 305.542969 38.019531 C 308.03125 38.265625 310.507812 38.628906 312.957031 39.117188 C 315.417969 39.605469 317.839844 40.210938 320.234375 40.9375 C 322.636719 41.660156 324.992188 42.503906 327.304688 43.457031 C 329.617188 44.414062 331.878906 45.480469 334.082031 46.660156 C 336.289062 47.832031 338.433594 49.117188 340.519531 50.507812 C 342.601562 51.890625 344.605469 53.378906 346.542969 54.964844 C 348.476562 56.546875 350.332031 58.222656 352.105469 59.988281 C 353.871094 61.757812 355.550781 63.605469 357.144531 65.535156 C 358.730469 67.464844 360.21875 69.472656 361.609375 71.546875 C 363.003906 73.621094 364.289062 75.761719 365.46875 77.964844 C 366.648438 80.167969 367.71875 82.421875 368.675781 84.730469 C 369.636719 87.039062 370.476562 89.386719 371.203125 91.777344 C 371.929688 94.167969 372.535156 96.589844 373.023438 99.039062 C 373.511719 101.492188 373.878906 103.957031 374.128906 106.445312 C 374.371094 108.925781 374.492188 111.421875 374.492188 113.914062 Z M 374.492188 113.914062 " fill-opacity="1" fill-rule="nonzero"/></g><g clip-path="url(#947969729c)"><path fill="#fff18f" d="M 296.847656 192.832031 C 296.847656 194.667969 296.761719 196.503906 296.578125 198.332031 C 296.398438 200.164062 296.125 201.976562 295.773438 203.777344 C 295.410156 205.582031 294.964844 207.359375 294.429688 209.121094 C 293.894531 210.875 293.273438 212.609375 292.570312 214.304688 C 291.867188 216.003906 291.074219 217.660156 290.210938 219.28125 C 289.34375 220.898438 288.394531 222.472656 287.371094 224.003906 C 286.351562 225.53125 285.25 227.003906 284.082031 228.425781 C 282.914062 229.84375 281.683594 231.207031 280.378906 232.503906 C 279.074219 233.804688 277.710938 235.035156 276.289062 236.199219 C 274.863281 237.367188 273.386719 238.460938 271.855469 239.484375 C 270.324219 240.5 268.746094 241.449219 267.121094 242.316406 C 265.496094 243.179688 263.832031 243.964844 262.128906 244.664062 C 260.433594 245.367188 258.699219 245.988281 256.933594 246.523438 C 255.171875 247.054688 253.386719 247.5 251.582031 247.863281 C 249.777344 248.214844 247.953125 248.488281 246.121094 248.667969 C 244.292969 248.851562 242.457031 248.9375 240.613281 248.9375 C 238.769531 248.9375 236.933594 248.851562 235.097656 248.667969 C 233.265625 248.488281 231.445312 248.214844 229.640625 247.863281 C 227.832031 247.5 226.046875 247.054688 224.285156 246.523438 C 222.523438 245.988281 220.792969 245.367188 219.089844 244.664062 C 217.386719 243.964844 215.722656 243.179688 214.101562 242.316406 C 212.476562 241.449219 210.898438 240.5 209.367188 239.484375 C 207.835938 238.460938 206.355469 237.367188 204.929688 236.199219 C 203.507812 235.035156 202.148438 233.804688 200.84375 232.503906 C 199.542969 231.207031 198.304688 229.84375 197.136719 228.425781 C 195.96875 227.003906 194.875 225.53125 193.851562 224.003906 C 192.828125 222.472656 191.882812 220.898438 191.011719 219.28125 C 190.144531 217.660156 189.359375 216.003906 188.652344 214.304688 C 187.945312 212.609375 187.332031 210.875 186.796875 209.121094 C 186.261719 207.359375 185.8125 205.582031 185.453125 203.777344 C 185.09375 201.976562 184.824219 200.164062 184.640625 198.332031 C 184.460938 196.503906 184.371094 194.667969 184.371094 192.832031 C 184.371094 190.996094 184.460938 189.164062 184.640625 187.332031 C 184.824219 185.507812 185.09375 183.691406 185.453125 181.890625 C 185.8125 180.089844 186.261719 178.304688 186.796875 176.546875 C 187.332031 174.785156 187.945312 173.058594 188.652344 171.363281 C 189.359375 169.664062 190.144531 168.007812 191.011719 166.386719 C 191.882812 164.765625 192.828125 163.195312 193.851562 161.664062 C 194.875 160.136719 195.96875 158.660156 197.136719 157.242188 C 198.304688 155.824219 199.542969 154.464844 200.84375 153.160156 C 202.148438 151.863281 203.507812 150.632812 204.929688 149.464844 C 206.355469 148.300781 207.835938 147.207031 209.367188 146.183594 C 210.898438 145.160156 212.476562 144.21875 214.101562 143.355469 C 215.722656 142.488281 217.386719 141.703125 219.089844 141 C 220.792969 140.296875 222.523438 139.679688 224.285156 139.144531 C 226.046875 138.609375 227.832031 138.167969 229.640625 137.808594 C 231.445312 137.445312 233.265625 137.179688 235.097656 137 C 236.933594 136.820312 238.769531 136.730469 240.613281 136.730469 C 242.457031 136.730469 244.292969 136.820312 246.121094 137 C 247.953125 137.179688 249.777344 137.445312 251.582031 137.808594 C 253.386719 138.167969 255.171875 138.609375 256.933594 139.144531 C 258.699219 139.679688 260.433594 140.296875 262.128906 141 C 263.832031 141.703125 265.496094 142.488281 267.121094 143.355469 C 268.746094 144.21875 270.324219 145.160156 271.855469 146.183594 C 273.386719 147.207031 274.863281 148.300781 276.289062 149.464844 C 277.710938 150.632812 279.074219 151.863281 280.378906 153.160156 C 281.683594 154.464844 282.914062 155.824219 284.082031 157.242188 C 285.25 158.660156 286.351562 160.136719 287.371094 161.664062 C 288.394531 163.195312 289.34375 164.765625 290.210938 166.386719 C 291.074219 168.007812 291.867188 169.664062 292.570312 171.363281 C 293.273438 173.058594 293.894531 174.785156 294.429688 176.546875 C 294.964844 178.304688 295.410156 180.089844 295.773438 181.890625 C 296.125 183.691406 296.398438 185.507812 296.578125 187.332031 C 296.761719 189.164062 296.847656 190.996094 296.847656 192.832031 Z M 296.847656 192.832031 " fill-opacity="1" fill-rule="nonzero"/></g><path fill="#0000ff" d="M 187.523438 71.191406 C 365.433594 218.328125 99.703125 414.449219 9.683594 225.640625 C 1.15625 207.730469 2.332031 168.433594 34.796875 168.433594 C 63.933594 168.433594 98.714844 136.117188 66.71875 120.328125 C 32.785156 103.542969 20.890625 -66.546875 187.523438 71.191406 Z M 187.523438 71.191406 " fill-opacity="1" fill-rule="evenodd"/><path fill="#00ffff" d="M 176.171875 193.179688 C 225.484375 193.179688 265.453125 233.09375 265.453125 282.339844 C 265.453125 331.617188 225.484375 371.535156 176.171875 371.535156 C 126.867188 371.535156 86.886719 331.617188 86.886719 282.339844 C 86.886719 233.09375 126.867188 193.179688 176.171875 193.179688 Z M 176.171875 193.179688 " fill-opacity="0.549" fill-rule="evenodd"/><path fill="#0000ff" d="M 282.992188 199.574219 C 312.535156 199.574219 336.476562 223.484375 336.476562 252.984375 C 336.476562 282.484375 312.535156 306.390625 282.992188 306.390625 C 253.453125 306.390625 229.46875 282.484375 229.46875 252.984375 C 229.46875 223.484375 253.453125 199.574219 282.992188 199.574219 Z M 282.992188 199.574219 " fill-opacity="0.549" fill-rule="evenodd"/></svg>